# Blender 4.5.3 LTS
# www.blender.org
mtllib maze.mtl
o maze-stl_V2
v 1840.749756 720.000000 -1653.075684
v 2572.749756 0.000000 -1653.075684
v 1840.749756 0.000000 -1653.075684
v 2572.749756 720.000000 -1653.075684
v 2561.248779 11.500870 -1601.075684
v 1912.250610 11.500870 -1641.075684
v 1912.250610 11.500870 -1601.075684
v 2561.248779 11.500870 -1641.075684
v 2561.248779 288.499115 -1601.075684
v 2561.248779 288.499115 -1641.075684
v 2501.248779 155.499130 -1601.075684
v 2489.248779 71.499130 -1601.075684
v 2501.248779 71.499130 -1601.075684
v 2489.248779 143.499130 -1601.075684
v 2429.248779 143.499130 -1601.075684
v 2429.248779 71.499130 -1601.075684
v 2416.248779 83.499130 -1601.075684
v 1852.250610 71.499130 -1601.075684
v 2416.248779 155.499130 -1601.075684
v 2501.248779 228.417236 -1601.075684
v 2357.248779 214.499130 -1601.075684
v 2501.248779 214.499130 -1601.075684
v 2357.248779 143.499130 -1601.075684
v 2345.248779 155.499130 -1601.075684
v 1912.250610 143.499130 -1601.075684
v 2345.248779 228.417236 -1601.075684
v 1997.250610 226.499130 -1601.075684
v 1985.250610 155.499130 -1601.075684
v 1997.250610 155.499130 -1601.075684
v 1985.250610 226.499130 -1601.075684
v 2501.248779 360.464142 -1601.075684
v 2489.248779 372.673981 -1601.075684
v 2417.248779 360.464142 -1601.075684
v 2501.248779 576.499146 -1601.075684
v 2489.248779 576.499146 -1601.075684
v 2212.250732 288.499115 -1601.075684
v 2200.250732 300.499115 -1601.075684
v 2128.250732 288.499115 -1601.075684
v 2212.250732 576.499146 -1601.075684
v 2200.250732 563.499146 -1601.075684
v 2140.250732 563.499146 -1601.075684
v 2140.250732 432.499115 -1601.075684
v 2128.250732 444.499115 -1601.075684
v 1984.250610 432.499115 -1601.075684
v 2128.250732 576.499146 -1601.075684
v 2572.749756 0.000000 -1601.075684
v 1912.250610 0.000000 -1601.075684
v 2572.749756 720.000000 -1601.075684
v 2561.248779 300.499115 -1601.075684
v 2345.248779 288.499115 -1601.075684
v 2561.248779 636.499146 -1601.075684
v 2561.248779 648.499146 -1601.075684
v 2429.248779 636.499146 -1601.075684
v 2561.248779 708.499146 -1601.075684
v 2357.248779 708.499146 -1601.075684
v 2345.248779 708.499146 -1601.075684
v 1924.250610 708.499146 -1601.075684
v 1912.250610 708.499146 -1601.075684
v 1852.250610 708.499146 -1601.075684
v 1840.749756 0.000000 -1601.075684
v 1852.250610 0.000000 -1601.075684
v 1840.749756 720.000000 -1601.075684
v 1852.250610 83.499130 -1601.075684
v 1852.250610 492.499115 -1601.075684
v 1852.250610 504.499115 -1601.075684
v 1996.250610 504.499115 -1601.075684
v 2068.250732 576.499146 -1601.075684
v 2056.250732 504.499115 -1601.075684
v 2068.250732 504.499115 -1601.075684
v 2056.250732 564.499146 -1601.075684
v 1912.250610 564.499146 -1601.075684
v 1924.250610 576.499146 -1601.075684
v 1984.250610 576.499146 -1601.075684
v 1926.250610 576.499146 -1601.075684
v 2429.248779 372.673981 -1601.075684
v 2417.248779 504.499115 -1601.075684
v 2417.248779 516.499146 -1601.075684
v 2273.248779 504.499115 -1601.075684
v 2417.248779 648.499146 -1601.075684
v 2285.248779 516.499146 -1601.075684
v 2273.248779 636.499146 -1601.075684
v 2285.248779 648.499146 -1601.075684
v 1984.250610 636.499146 -1601.075684
v 1984.250610 648.499146 -1601.075684
v 1996.250610 444.499115 -1601.075684
v 1984.250610 492.499115 -1601.075684
v 2140.250732 300.499115 -1601.075684
v 2128.250732 360.499115 -1601.075684
v 2140.250732 372.499115 -1601.075684
v 1912.250610 360.499115 -1601.075684
v 1924.250610 372.499115 -1601.075684
v 1912.250610 432.499115 -1601.075684
v 1924.250610 432.499115 -1601.075684
v 2357.248779 300.499115 -1601.075684
v 2345.248779 432.499115 -1601.075684
v 2357.248779 444.499115 -1601.075684
v 2285.248779 432.499115 -1601.075684
v 2285.248779 214.499130 -1601.075684
v 2273.248779 228.499130 -1601.075684
v 2056.250732 214.499130 -1601.075684
v 2273.248779 444.499115 -1601.075684
v 2068.250732 228.499130 -1601.075684
v 2056.250732 288.499115 -1601.075684
v 2068.250732 300.499115 -1601.075684
v 1924.250610 288.499115 -1601.075684
v 1924.250610 155.499130 -1601.075684
v 1912.250610 300.499115 -1601.075684
v 1852.250610 504.499115 -1641.075684
v 1852.250610 708.499146 -1641.075684
v 1912.250610 0.000000 -1641.075684
v 1912.250610 564.499146 -1641.075684
v 1912.250610 708.499146 -1641.075684
v 2056.250732 564.499146 -1641.075684
v 2056.250732 504.499115 -1641.075684
v 2068.250732 504.499115 -1641.075684
v 2068.250732 576.499146 -1641.075684
v 1984.250610 576.499146 -1641.075684
v 1924.250610 576.499146 -1641.075684
v 1926.250610 576.499146 -1641.075684
v 1924.250610 708.499146 -1641.075684
v 2489.248779 143.499130 -1641.075684
v 2429.248779 143.499130 -1641.075684
v 2489.248779 71.499130 -1641.075684
v 2501.248779 71.499130 -1641.075684
v 2501.248779 155.499130 -1641.075684
v 2416.248779 155.499130 -1641.075684
v 2416.248779 83.499130 -1641.075684
v 1852.250610 83.499130 -1641.075684
v 2429.248779 71.499130 -1641.075684
v 1852.250610 71.499130 -1641.075684
v 1852.250610 0.000000 -1641.075684
v 2357.248779 300.499115 -1641.075684
v 2561.248779 300.499115 -1641.075684
v 2357.248779 444.499115 -1641.075684
v 2273.248779 444.499115 -1641.075684
v 2273.248779 228.499130 -1641.075684
v 2068.250732 228.499130 -1641.075684
v 2068.250732 300.499115 -1641.075684
v 1912.250610 300.499115 -1641.075684
v 1912.250610 143.499130 -1641.075684
v 2357.248779 143.499130 -1641.075684
v 2357.248779 214.499130 -1641.075684
v 2501.248779 214.499130 -1641.075684
v 2501.248779 228.417236 -1641.075684
v 2345.248779 228.417236 -1641.075684
v 2345.248779 155.499130 -1641.075684
v 1997.250610 155.499130 -1641.075684
v 1997.250610 226.499130 -1641.075684
v 1985.250610 226.499130 -1641.075684
v 1985.250610 155.499130 -1641.075684
v 1924.250610 155.499130 -1641.075684
v 1924.250610 288.499115 -1641.075684
v 2056.250732 288.499115 -1641.075684
v 2056.250732 214.499130 -1641.075684
v 2285.248779 214.499130 -1641.075684
v 2285.248779 432.499115 -1641.075684
v 2345.248779 432.499115 -1641.075684
v 2345.248779 288.499115 -1641.075684
v 2561.248779 636.499146 -1641.075684
v 2212.250732 576.499146 -1641.075684
v 2212.250732 288.499115 -1641.075684
v 2128.250732 576.499146 -1641.075684
v 2128.250732 444.499115 -1641.075684
v 1996.250610 444.499115 -1641.075684
v 1996.250610 504.499115 -1641.075684
v 1984.250610 492.499115 -1641.075684
v 1852.250610 492.499115 -1641.075684
v 1984.250610 432.499115 -1641.075684
v 2140.250732 432.499115 -1641.075684
v 2140.250732 563.499146 -1641.075684
v 2200.250732 563.499146 -1641.075684
v 2200.250732 300.499115 -1641.075684
v 2140.250732 300.499115 -1641.075684
v 2140.250732 372.499115 -1641.075684
v 1924.250610 372.499115 -1641.075684
v 1924.250610 432.499115 -1641.075684
v 1912.250610 432.499115 -1641.075684
v 1912.250610 360.499115 -1641.075684
v 2128.250732 360.499115 -1641.075684
v 2128.250732 288.499115 -1641.075684
v 2429.248779 636.499146 -1641.075684
v 2429.248779 372.673981 -1641.075684
v 2417.248779 648.499146 -1641.075684
v 2561.248779 648.499146 -1641.075684
v 2417.248779 516.499146 -1641.075684
v 2285.248779 516.499146 -1641.075684
v 2285.248779 648.499146 -1641.075684
v 1984.250610 648.499146 -1641.075684
v 1984.250610 636.499146 -1641.075684
v 2273.248779 636.499146 -1641.075684
v 2273.248779 504.499115 -1641.075684
v 2417.248779 504.499115 -1641.075684
v 2417.248779 360.464142 -1641.075684
v 2501.248779 576.499146 -1641.075684
v 2501.248779 360.464142 -1641.075684
v 2489.248779 576.499146 -1641.075684
v 2489.248779 372.673981 -1641.075684
v 2345.248779 576.499146 -1601.075684
v 2357.248779 576.499146 -1601.075684
v 2345.248779 576.499146 -1641.075684
v 2345.248779 708.499146 -1641.075684
v 2357.248779 576.499146 -1641.075684
v 2357.248779 708.499146 -1641.075684
v 2561.248779 708.499146 -1641.075684
vn -0.0000 -0.0000 -1.0000
vn -0.0000 1.0000 -0.0000
vn -1.0000 -0.0000 -0.0000
vn -0.0000 -0.0000 1.0000
vn -0.0000 -1.0000 -0.0000
vn 1.0000 -0.0000 -0.0000
vn -0.0000 0.0010 1.0000
s 0
f 1//1 2//1 3//1
f 2//1 1//1 4//1
f 5//2 6//2 7//2
f 6//2 5//2 8//2
f 9//3 8//3 5//3
f 8//3 9//3 10//3
f 11//4 12//4 13//4
f 12//4 11//4 14//4
f 14//4 11//4 15//4
f 16//4 17//4 18//4
f 17//4 16//4 15//4
f 17//4 15//4 19//4
f 19//4 15//4 11//4
f 20//4 21//4 22//4
f 23//4 24//4 25//4
f 24//4 23//4 21//4
f 24//4 21//4 26//4
f 26//4 21//4 20//4
f 27//4 28//4 29//4
f 28//4 27//4 30//4
f 31//4 32//4 33//4
f 32//4 31//4 34//4
f 32//4 34//4 35//4
f 36//4 37//4 38//4
f 37//4 36//4 39//4
f 37//4 39//4 40//4
f 40//4 39//4 41//4
f 42//4 43//4 44//4
f 43//4 42//4 41//4
f 43//4 41//4 45//4
f 45//4 41//4 39//4
f 46//4 5//4 47//4
f 5//4 46//4 48//4
f 5//4 48//4 9//4
f 9//4 48//4 49//4
f 9//4 49//4 50//4
f 49//4 48//4 51//4
f 51//4 48//4 52//4
f 51//4 52//4 53//4
f 52//4 48//4 54//4
f 54//4 48//4 55//4
f 55//4 48//4 56//4
f 56//4 48//4 57//4
f 57//4 48//4 58//4
f 58//4 48//4 59//4
f 18//4 60//4 61//4
f 60//4 18//4 62//4
f 62//4 18//4 63//4
f 63//4 18//4 17//4
f 62//4 63//4 64//4
f 62//4 64//4 65//4
f 65//4 64//4 66//4
f 62//4 65//4 59//4
f 62//4 59//4 48//4
f 67//4 68//4 69//4
f 68//4 67//4 70//4
f 70//4 67//4 71//4
f 71//4 67//4 72//4
f 71//4 72//4 58//4
f 72//5 67//5 73//5
f 72//2 73//2 74//2
f 58//4 72//4 57//4
f 33//4 75//4 76//4
f 75//4 33//4 32//4
f 76//4 75//4 53//4
f 76//4 53//4 77//4
f 76//4 77//4 78//4
f 77//4 53//4 79//4
f 79//4 53//4 52//4
f 78//4 80//4 81//4
f 80//4 78//4 77//4
f 81//4 80//4 82//4
f 81//4 82//4 83//4
f 83//4 82//4 84//4
f 44//4 85//4 86//4
f 85//4 44//4 43//4
f 86//4 85//4 66//4
f 86//4 66//4 64//4
f 38//4 87//4 88//4
f 87//4 38//4 37//4
f 88//4 87//4 89//4
f 88//4 89//4 90//4
f 90//4 89//4 91//4
f 90//4 91//4 92//4
f 92//4 91//4 93//4
f 50//4 94//4 95//4
f 94//4 50//4 49//4
f 95//4 94//4 96//4
f 95//4 96//4 97//4
f 98//4 99//4 100//4
f 99//4 98//4 97//4
f 99//4 97//4 101//4
f 101//4 97//4 96//4
f 100//4 102//4 103//4
f 102//4 100//4 99//4
f 103//4 102//4 104//4
f 103//4 104//4 105//4
f 25//4 106//4 107//4
f 106//4 25//4 24//4
f 106//5 24//5 29//5
f 106//2 29//2 28//2
f 107//4 106//4 105//4
f 107//4 105//4 104//4
f 7//4 47//4 5//4
f 108//6 59//6 65//6
f 59//6 108//6 109//6
f 6//3 47//3 7//3
f 47//3 6//3 110//3
f 58//3 111//3 71//3
f 111//3 58//3 112//3
f 113//5 71//5 111//5
f 71//5 113//5 70//5
f 70//3 114//3 68//3
f 114//3 70//3 113//3
f 115//5 68//5 114//5
f 68//5 115//5 69//5
f 115//6 67//6 69//6
f 67//6 115//6 116//6
f 67//2 117//2 73//2
f 117//2 67//2 116//2
f 74//2 118//2 72//2
f 118//2 74//2 119//2
f 118//6 57//6 72//6
f 57//6 118//6 120//6
f 112//5 59//5 109//5
f 59//5 112//5 58//5
f 73//2 119//2 74//2
f 119//2 73//2 117//2
f 121//5 15//5 122//5
f 15//5 121//5 14//5
f 121//3 12//3 14//3
f 12//3 121//3 123//3
f 124//5 12//5 123//5
f 12//5 124//5 13//5
f 13//6 125//6 11//6
f 125//6 13//6 124//6
f 11//2 126//2 19//2
f 126//2 11//2 125//2
f 126//3 17//3 19//3
f 17//3 126//3 127//3
f 17//2 128//2 63//2
f 128//2 17//2 127//2
f 129//5 18//5 130//5
f 18//5 129//5 16//5
f 129//6 15//6 16//6
f 15//6 129//6 122//6
f 131//6 18//6 61//6
f 18//6 131//6 130//6
f 49//2 132//2 94//2
f 132//2 49//2 133//2
f 94//6 134//6 96//6
f 134//6 94//6 132//6
f 96//2 135//2 101//2
f 135//2 96//2 134//2
f 135//3 99//3 101//3
f 99//3 135//3 136//3
f 99//2 137//2 102//2
f 137//2 99//2 136//2
f 102//6 138//6 104//6
f 138//6 102//6 137//6
f 104//2 139//2 107//2
f 139//2 104//2 138//2
f 139//3 25//3 107//3
f 25//3 139//3 140//3
f 141//5 25//5 140//5
f 25//5 141//5 23//5
f 141//6 21//6 23//6
f 21//6 141//6 142//6
f 143//5 21//5 142//5
f 21//5 143//5 22//5
f 22//6 144//6 20//6
f 144//6 22//6 143//6
f 20//2 145//2 26//2
f 145//2 20//2 144//2
f 26//3 146//3 24//3
f 146//3 26//3 145//3
f 24//2 147//2 29//2
f 147//2 24//2 146//2
f 147//6 27//6 29//6
f 27//6 147//6 148//6
f 27//2 149//2 30//2
f 149//2 27//2 148//2
f 30//3 150//3 28//3
f 150//3 30//3 149//3
f 28//2 151//2 106//2
f 151//2 28//2 150//2
f 151//6 105//6 106//6
f 105//6 151//6 152//6
f 153//5 105//5 152//5
f 105//5 153//5 103//5
f 153//3 100//3 103//3
f 100//3 153//3 154//3
f 155//5 100//5 154//5
f 100//5 155//5 98//5
f 98//6 156//6 97//6
f 156//6 98//6 155//6
f 157//5 97//5 156//5
f 97//5 157//5 95//5
f 157//3 50//3 95//3
f 50//3 157//3 158//3
f 10//5 50//5 158//5
f 50//5 10//5 9//5
f 159//3 49//3 51//3
f 49//3 159//3 133//3
f 36//6 160//6 39//6
f 160//6 36//6 161//6
f 39//2 162//2 45//2
f 162//2 39//2 160//2
f 45//3 163//3 43//3
f 163//3 45//3 162//3
f 43//2 164//2 85//2
f 164//2 43//2 163//2
f 164//6 66//6 85//6
f 66//6 164//6 165//6
f 66//2 108//2 65//2
f 108//2 66//2 165//2
f 166//5 64//5 167//5
f 64//5 166//5 86//5
f 166//3 44//3 86//3
f 44//3 166//3 168//3
f 169//5 44//5 168//5
f 44//5 169//5 42//5
f 42//6 170//6 41//6
f 170//6 42//6 169//6
f 171//5 41//5 170//5
f 41//5 171//5 40//5
f 171//3 37//3 40//3
f 37//3 171//3 172//3
f 37//2 173//2 87//2
f 173//2 37//2 172//2
f 173//6 89//6 87//6
f 89//6 173//6 174//6
f 89//2 175//2 91//2
f 175//2 89//2 174//2
f 91//6 176//6 93//6
f 176//6 91//6 175//6
f 93//2 177//2 92//2
f 177//2 93//2 176//2
f 177//3 90//3 92//3
f 90//3 177//3 178//3
f 179//5 90//5 178//5
f 90//5 179//5 88//5
f 88//3 180//3 38//3
f 180//3 88//3 179//3
f 161//5 38//5 180//5
f 38//5 161//5 36//5
f 63//6 167//6 64//6
f 167//6 63//6 128//6
f 75//6 181//6 53//6
f 181//6 75//6 182//6
f 159//5 53//5 181//5
f 53//5 159//5 51//5
f 52//2 183//2 79//2
f 183//2 52//2 184//2
f 79//3 185//3 77//3
f 185//3 79//3 183//3
f 77//2 186//2 80//2
f 186//2 77//2 185//2
f 186//6 82//6 80//6
f 82//6 186//6 187//6
f 82//2 188//2 84//2
f 188//2 82//2 187//2
f 84//3 189//3 83//3
f 189//3 84//3 188//3
f 190//5 83//5 189//5
f 83//5 190//5 81//5
f 81//3 191//3 78//3
f 191//3 81//3 190//3
f 192//5 78//5 191//5
f 78//5 192//5 76//5
f 192//3 33//3 76//3
f 33//3 192//3 193//3
f 31//6 194//6 34//6
f 194//6 31//6 195//6
f 34//2 196//2 35//2
f 196//2 34//2 194//2
f 196//3 32//3 35//3
f 32//3 196//3 197//3
f 55//4 198//4 199//4
f 198//4 55//4 56//4
f 56//3 200//3 198//3
f 200//3 56//3 201//3
f 202//5 198//5 200//5
f 198//5 202//5 199//5
f 202//6 55//6 199//6
f 55//6 202//6 203//6
f 201//5 57//5 120//5
f 57//5 201//5 56//5
f 8//4 124//4 6//4
f 124//4 8//4 10//4
f 124//4 10//4 125//4
f 125//4 10//4 143//4
f 125//4 143//4 126//4
f 143//4 10//4 144//4
f 144//4 10//4 145//4
f 146//4 155//4 147//4
f 155//4 146//4 145//4
f 155//4 145//4 156//4
f 156//4 145//4 158//4
f 158//4 145//4 10//4
f 156//4 158//4 157//4
f 133//4 195//4 132//4
f 195//4 133//4 159//4
f 195//4 159//4 194//4
f 194//4 159//4 196//4
f 196//4 182//4 197//4
f 182//4 196//4 181//4
f 181//4 196//4 159//4
f 171//4 173//4 172//4
f 173//4 171//4 174//4
f 174//4 171//4 169//4
f 174//4 169//4 175//4
f 169//4 171//4 170//4
f 163//4 115//4 164//4
f 115//4 163//4 162//4
f 115//4 162//4 116//4
f 204//4 183//4 184//4
f 185//4 202//4 186//4
f 202//4 185//4 183//4
f 202//4 183//4 203//4
f 203//4 183//4 204//4
f 186//4 200//4 187//4
f 200//4 186//4 202//4
f 187//4 200//4 201//4
f 187//4 201//4 188//4
f 136//4 161//4 137//4
f 161//4 136//4 135//4
f 161//4 135//4 160//4
f 160//4 135//4 191//4
f 191//4 135//4 192//4
f 160//4 191//4 190//4
f 160//4 190//4 162//4
f 162//4 190//4 116//4
f 116//4 190//4 117//4
f 117//4 190//4 119//4
f 119//7 190//7 118//7
f 118//4 190//4 189//4
f 118//4 189//4 120//4
f 120//4 189//4 188//4
f 120//4 188//4 201//4
f 115//4 165//4 164//4
f 165//2 115//2 114//2
f 165//4 114//4 113//4
f 165//4 113//4 108//4
f 108//4 113//4 111//4
f 108//4 111//4 109//4
f 109//4 111//4 112//4
f 169//4 176//4 175//4
f 176//5 169//5 168//5
f 176//4 168//4 166//4
f 176//4 166//4 177//4
f 128//4 140//4 167//4
f 140//4 128//4 141//4
f 167//4 140//4 139//4
f 167//4 139//4 178//4
f 178//4 139//4 179//4
f 167//4 178//4 177//4
f 167//4 177//4 166//4
f 132//4 193//4 134//4
f 193//4 132//4 195//4
f 134//4 193//4 192//4
f 134//4 192//4 135//4
f 137//4 180//4 138//4
f 180//4 137//4 161//4
f 138//4 180//4 179//4
f 138//4 179//4 139//4
f 147//4 154//4 148//4
f 154//4 147//4 155//4
f 148//4 154//4 153//4
f 148//4 153//4 149//4
f 149//4 151//4 150//4
f 151//4 149//4 152//4
f 152//4 149//4 153//4
f 127//4 141//4 128//4
f 141//4 127//4 126//4
f 141//4 126//4 142//4
f 142//4 126//4 143//4
f 121//4 129//4 123//4
f 129//4 121//4 122//4
f 6//4 131//4 110//4
f 131//4 6//4 130//4
f 130//4 6//4 124//4
f 130//5 124//5 123//5
f 130//2 123//2 129//2
f 195//5 33//5 193//5
f 33//5 195//5 31//5
f 32//2 182//2 75//2
f 182//2 32//2 197//2
f 3//5 131//5 60//5
f 131//5 3//5 2//5
f 131//5 2//5 110//5
f 110//5 2//5 47//5
f 47//5 2//5 46//5
f 61//5 60//5 131//5
f 62//3 3//3 60//3
f 3//3 62//3 1//3
f 48//2 1//2 62//2
f 1//2 48//2 4//2
f 2//6 48//6 46//6
f 48//6 2//6 4//6
f 204//5 55//5 203//5
f 55//5 204//5 54//5
f 54//3 184//3 52//3
f 184//3 54//3 204//3
